<svg width="72" height="20" viewBox="0 0 72 20" fill="none" xmlns="http://www.w3.org/2000/svg">
<path d="M19.3369 0.944827L11.47 19H8.16849L0.275804 0.944827H3.91263L9.92243 14.8731L15.9838 0.944827H19.3369ZM32.8481 12.1906C32.8481 12.4142 32.8309 12.7323 32.7965 13.145H21.9892C22.1783 14.1595 22.6684 14.9677 23.4594 15.5695C24.2676 16.1542 25.2649 16.4465 26.4514 16.4465C27.9646 16.4465 29.2112 15.9478 30.1914 14.9505L31.9195 16.9366C31.3005 17.676 30.5181 18.2348 29.5723 18.6131C28.6266 18.9914 27.5605 19.1806 26.374 19.1806C24.8608 19.1806 23.5282 18.8796 22.3761 18.2778C21.224 17.676 20.3298 16.842 19.6936 15.7759C19.0745 14.6926 18.765 13.4717 18.765 12.1132C18.765 10.772 19.0659 9.56832 19.6678 8.50221C20.2868 7.4189 21.138 6.57632 22.2213 5.97448C23.3046 5.37264 24.5255 5.07172 25.8839 5.07172C27.2252 5.07172 28.4202 5.37264 29.4692 5.97448C30.5353 6.55913 31.3607 7.3931 31.9453 8.47641C32.5471 9.54253 32.8481 10.7806 32.8481 12.1906ZM25.8839 7.65103C24.8522 7.65103 23.9752 7.96055 23.253 8.57959C22.548 9.18143 22.1181 9.98961 21.9634 11.0041H29.7787C29.6411 10.0068 29.2198 9.19862 28.5148 8.57959C27.8098 7.96055 26.9328 7.65103 25.8839 7.65103ZM42.1354 19.1806C40.7426 19.1806 39.4873 18.8796 38.3696 18.2778C37.2519 17.676 36.3749 16.842 35.7387 15.7759C35.1197 14.6926 34.8101 13.4717 34.8101 12.1132C34.8101 10.7548 35.1197 9.54253 35.7387 8.47641C36.3749 7.4103 37.2519 6.57632 38.3696 5.97448C39.4873 5.37264 40.7426 5.07172 42.1354 5.07172C43.5454 5.07172 44.8093 5.37264 45.927 5.97448C47.0447 6.57632 47.913 7.4103 48.5321 8.47641C49.1683 9.54253 49.4864 10.7548 49.4864 12.1132C49.4864 13.4717 49.1683 14.6926 48.5321 15.7759C47.913 16.842 47.0447 17.676 45.927 18.2778C44.8093 18.8796 43.5454 19.1806 42.1354 19.1806ZM42.1354 16.4207C43.3219 16.4207 44.302 16.0252 45.0758 15.2342C45.8496 14.4432 46.2365 13.4029 46.2365 12.1132C46.2365 10.8236 45.8496 9.78326 45.0758 8.99228C44.302 8.20129 43.3219 7.80579 42.1354 7.80579C40.9489 7.80579 39.9688 8.20129 39.195 8.99228C38.4384 9.78326 38.0601 10.8236 38.0601 12.1132C38.0601 13.4029 38.4384 14.4432 39.195 15.2342C39.9688 16.0252 40.9489 16.4207 42.1354 16.4207ZM66.4041 8.39903C68.072 8.60538 69.3445 9.17283 70.2215 10.1014C71.0984 11.0299 71.5369 12.1906 71.5369 13.5834C71.5369 14.6324 71.2704 15.5867 70.7373 16.4465C70.2043 17.3063 69.3961 17.9941 68.3128 18.5099C67.2467 19.0086 65.9398 19.2579 64.3922 19.2579C63.1026 19.2579 61.8559 19.0774 60.6522 18.7163C59.4657 18.338 58.4512 17.8221 57.6086 17.1687L59.053 14.5636C59.7065 15.1138 60.4975 15.5523 61.426 15.879C62.3718 16.1886 63.3433 16.3433 64.3406 16.3433C65.5271 16.3433 66.4557 16.1026 67.1263 15.6211C67.8141 15.1224 68.158 14.4518 68.158 13.6092C68.158 12.7667 67.8313 12.1132 67.1779 11.649C66.5416 11.1675 65.5615 10.9268 64.2375 10.9268H62.5867V8.63117L66.6878 3.75628H58.4856V0.944827H70.7889V3.18883L66.4041 8.39903Z" fill="white"/>
</svg>
